<?xml version="1.0" encoding="UTF-8"?>
<svg id="Graphic_Elements" xmlns="http://www.w3.org/2000/svg" version="1.1" viewBox="0 0 1200 1200">
  <!-- Generator: Adobe Illustrator 29.8.3, SVG Export Plug-In . SVG Version: 2.1.1 Build 3)  -->
  <defs>
    <style>
      .st0 {
        fill: #fff;
      }
    </style>
  </defs>
  <path class="st0" d="M681.8,383.08c20.85-20.9,33.75-49.74,33.75-81.6,0-63.82-51.73-115.55-115.55-115.55-40.34,0-75.81,20.71-96.48,52.04-5.49,5.5-465.47,572.44-469.77,578.95C12.9,837.82,0,866.66,0,898.52c0,63.82,51.73,115.55,115.55,115.55,40.34,0,75.81-20.71,96.48-52.04,5.49-5.5,465.48-572.44,469.77-578.95Z"/>
  <path class="st0" d="M947.97,652.09c20.9-20.91,33.83-49.79,33.83-81.69,0-63.82-51.73-115.55-115.55-115.55-40.36,0-75.84,20.73-96.51,52.09-5.54,5.54-247.13,303.34-251.46,309.9-20.9,20.91-33.83,49.79-33.83,81.69,0,63.82,51.73,115.55,115.55,115.55,40.36,0,75.84-20.73,96.51-52.08,5.54-5.54,247.13-303.34,251.46-309.9Z"/>
  <circle class="st0" cx="1084.45" cy="301.48" r="115.55" transform="translate(543.44 1288.51) rotate(-76.81)"/>
  <circle class="st0" cx="115.55" cy="301.48" r="115.55" transform="translate(-103.13 63.95) rotate(-21.66)"/>
</svg>