<?xml version="1.0" encoding="UTF-8"?>
<svg id="Capa_1" xmlns="http://www.w3.org/2000/svg" version="1.1" viewBox="0 0 300 300">
  <!-- Generator: Adobe Illustrator 29.8.3, SVG Export Plug-In . SVG Version: 2.1.1 Build 3)  -->
  <defs>
    <style>
      .st0 {
        fill: #161819;
      }

      .st1, .st2, .st3, .st4, .st5 {
        fill: none;
        stroke: #000;
      }

      .st1, .st2, .st3, .st5 {
        stroke-width: .5px;
      }

      .st1, .st2, .st4 {
        stroke-miterlimit: 10;
      }

      .st6 {
        fill: #78b5ff;
      }

      .st2, .st5 {
        stroke-linecap: round;
      }

      .st7 {
        fill: #efab22;
      }

      .st8 {
        fill: #ffdea4;
      }

      .st9 {
        fill: #ffd2d2;
      }

      .st10 {
        fill: #ffc41d;
      }

      .st11 {
        fill: #2755a0;
      }

      .st3, .st5 {
        stroke-linejoin: round;
      }

      .st12 {
        fill: #a982f4;
      }

      .st13 {
        fill: #e0e0e0;
      }

      .st14 {
        fill: #f0d4e4;
        fill-rule: evenodd;
      }

      .st4 {
        stroke-width: .25px;
      }

      .st15 {
        fill: #9e647b;
      }

      .st16 {
        fill: #e04444;
      }

      .st17 {
        fill: #c0c195;
      }

      .st18 {
        fill: #cceaff;
      }

      .st19 {
        fill: #ff4848;
      }

      .st20 {
        fill: #f7da31;
      }
    </style>
  </defs>
  <path class="st14" d="M260.19,223.37c-.77-.17-8.2-3.47-7.12-15.78,1.08-12.31,19.53-11.59,23.78-2.8,4.25,8.78-2.12,21.78-16.66,18.58"/>
  <path class="st14" d="M44.49,167.28s-7.23,8.48-15.92-2.09c-8.7-10.58,4.78-21.55,12.98-19.49,8.21,2.06,8.78,12.02,6.9,15-1.88,2.98-3.04,5.7-3.96,6.58"/>
  <path class="st14" d="M254.27,95.75s10.34.58,15.04,13.18-10.04,20.99-16.11,13.49c-4.94-6.1-9.21-3.92-10.66-11.94-1.45-8.02,4.38-15.99,11.73-14.73"/>
  <path class="st14" d="M247.37,235.08c1.11-5.66-.2-11.3-2.04-14.85-3.83-7.39-5.24-19.07,0-21.47,5.24-2.4,19.02-10.34,21.22-28.41,2.2-18.07-5.14-44.88-37.53-56.35-32.39-11.46-34.47,4.77-66.23,4.22-31.77-.56-35.91-23.13-67.52-26.31-31.6-3.18-44.8,27.28-44.8,41.41,0,12.24,6.66,22.39,8.7,29.9,7.38,27.24-21.4,11.26-25.32,39.61-1.67,12.06,6.16,24.45,12.69,32.25h200.84Z"/>
  <path class="st5" d="M94.3,108.92c-9.26.33-14.22-.89-31.12,16.41"/>
  <polyline class="st5" points="90.81 106.32 94.87 108.92 90.81 110.96"/>
  <path class="st5" d="M64.07,106.32c5.77,11.46,12.35,20.48,29.66,19.34"/>
  <polyline class="st5" points="90.81 123.71 94.87 125.76 90.4 127.37"/>
  <line class="st5" x1="62.37" y1="129.07" x2="95.84" y2="129.07"/>
  <line class="st5" x1="88.85" y1="165.32" x2="99.57" y2="171.74"/>
  <line class="st5" x1="55.86" y1="144.11" x2="81.86" y2="160.69"/>
  <path class="st18" d="M209.77,133.74l-64.01-.76-10.1-27.84s3.74-24.87,40.63-22.43c34.91,2.3,31.98,15.24,33.49,51.03"/>
  <polygon points="145.24 171.04 141.5 174.46 174.49 174.46 174.88 170.57 145.27 170.57 145.24 171.04"/>
  <path d="M178.36,170.57l.03,1.12-2.43,2.77h32.01s0-.01.24-3.89h-29.85Z"/>
  <path class="st11" d="M210.08,140c-.12-2.18-.22-4.3-.31-6.33l-64.01-.76,1.76,4.82-2.25,32.84h29.61l2.7-26.83.78,26.83h29.85c.26-4.15.78-12.75,1.88-30.57"/>
  <path class="st3" d="M135.66,105.14s3.74-24.86,40.62-22.42c36.89,2.44,31.52,16.74,33.8,57.36l-2.11,34.45h-32.01l2.44-2.76-.81-27.95-3.09,30.71h-32.99l3.74-3.41,2.28-33.31-11.86-32.66Z"/>
  <path class="st9" d="M131.51,131.51c-19.18,2.93-23.56-5.04-26.41-13.81-1.87-3.66-5.44-22.42-5.28-24.86-7.31,1.71-7.88.08-5.52-1.87,2.27-2.19,5.75-3.41,5.75-3.41-4.79.87-6.8-.24-6.58-1.4.73-1.84,11.7-6.52,11.7-6.52,0,0,4.39-1.95,7.64,1.95,3.25,3.9,15.11,18.77,16.01,31.2,1.79,12.67,2.7,18.73,2.7,18.73"/>
  <path class="st1" d="M132.31,131.45c-19.18,2.93-24.36-4.97-27.2-13.75-1.87-3.66-5.44-22.42-5.28-24.86-7.31,1.71-7.88.08-5.53-1.87,2.28-2.19,5.75-3.41,5.75-3.41-4.79.87-6.8-.24-6.58-1.4.73-1.84,11.7-6.52,11.7-6.52,0,0,4.39-1.95,7.64,1.95,3.25,3.9,15.11,18.77,16.01,31.2,1.79,12.67,3.5,18.66,3.5,18.66Z"/>
  <path class="st10" d="M130.44,90.4l-42.8,42.8c-5.36-.55-5.08-5.08-5.08-5.08l42.8-42.8,5.08,5.08Z"/>
  <path class="st10" d="M141.72,101.67l-42.8,42.8s-4.54.27-5.08-5.09l42.8-42.8,5.08,5.08Z"/>
  <path class="st7" d="M136.63,96.59l-42.8,42.8s-2.26-.03-4.21-1.98c-1.95-1.95-1.98-4.21-1.98-4.21l42.8-42.8,6.19,6.19Z"/>
  <path class="st0" d="M83.94,148.08l-5.59,1.35c-.45.11-.86-.3-.75-.75l1.35-5.59c1.16.31,2.25.92,3.16,1.83.91.91,1.52,2,1.83,3.16"/>
  <path class="st8" d="M98.92,144.47l-14.98,3.61c-.31-1.16-.92-2.25-1.83-3.16-.91-.91-2-1.52-3.16-1.83l3.61-14.97s-.27,4.54,5.08,5.08c0,0,.03,2.26,1.98,4.21,1.95,1.95,4.21,1.98,4.21,1.98.55,5.36,5.08,5.08,5.08,5.08"/>
  <path class="st16" d="M153.38,90.01l-5.63,5.63-16.36-16.36,5.63-5.63c1.58-1.58,4.14-1.58,5.72,0l10.64,10.64c1.58,1.58,1.58,4.14,0,5.72"/>
  <polygon class="st13" points="147.74 95.65 141.72 101.67 136.63 96.59 130.44 90.4 125.36 85.31 131.39 79.29 147.74 95.65"/>
  <polygon class="st3" points="147.74 95.65 141.72 101.67 136.63 96.59 130.44 90.4 125.36 85.31 131.39 79.29 147.74 95.65"/>
  <line class="st16" x1="131.39" y1="79.29" x2="131.38" y2="79.29"/>
  <path class="st2" d="M153.38,84.29l-10.64-10.64c-1.58-1.58-4.14-1.58-5.72,0l-5.63,5.63-6.03,6.03-42.8,42.8-3.61,14.97-1.35,5.59c-.11.45.3.86.75.75l5.59-1.35,14.98-3.61,42.8-42.8,6.03-6.03,5.63-5.63c1.58-1.58,1.58-4.14,0-5.72Z"/>
  <line class="st4" x1="209.77" y1="133.74" x2="145.76" y2="132.98"/>
  <path class="st19" d="M181.12,131.95v-33.27c-16.82,10.72-22.18,11.46-51.19,5.73-19.99-1.83-18.65,3.66-18.65,3.66,0,0,1.02,2.72,7.6,1.38-4.51,1.54-9.02,2.97-8.37,6.13.85,1.95,5.16,1.1,7.8-.49-5.2,3.94-7.76,5.28-6.99,8.08,1.3,2.76,8.33-1.83,8.33-1.83,19.78,20.03,42.33,21.04,61.47,10.6"/>
  <path class="st1" d="M181.12,131.95v-33.27c-16.82,10.72-22.18,11.46-51.19,5.73-19.99-1.83-18.65,3.66-18.65,3.66,0,0,1.02,2.72,7.6,1.38-4.51,1.54-9.02,2.97-8.37,6.13.85,1.95,5.16,1.1,7.8-.49-5.2,3.94-7.76,5.28-6.99,8.08,1.3,2.76,8.33-1.83,8.33-1.83,19.78,20.03,42.33,21.04,61.47,10.6Z"/>
  <path class="st2" d="M166,132.81s3.33-.89,5.2-.81"/>
  <path class="st1" d="M121.23,108.92s1.95-.89,4.22-.41"/>
  <path class="st1" d="M120.58,114.86s3.82-.41,4.47.41"/>
  <path class="st2" d="M116.07,92.37c-8.71-.85-9.93-2.13-9.81-4.81.12-2.68,7.92-.73,7.92-.73"/>
  <path class="st2" d="M109.68,83.66c-5.3,2.01-7.56,2.86-8.71,1.52-1.16-1.34,2.26-4.75,5-5.85"/>
  <path class="st2" d="M181.81,145.91s-1.22,1.38-1.22,3.25"/>
  <path class="st2" d="M150.85,145.91s-1.14,2.03-.98,3.25"/>
  <path class="st2" d="M182.14,130.94c9.99-5.4,18.52-12.11,20.96-19.99"/>
  <path class="st2" d="M182.14,97.87c2.76-2.11,5.52-4.55,6.5-6.58"/>
  <polygon points="159.76 98.95 165.32 89.26 171.2 99.91 164.59 106.33 159.76 98.95"/>
  <path class="st9" d="M171.6,73.24c-.35,1.32-1.6,2.13-2.8,1.81-1.19-.32-1.88-1.64-1.53-2.96.35-1.32,1.6-2.13,2.8-1.81,1.19.32,1.88,1.64,1.53,2.96"/>
  <path class="st4" d="M171.6,73.24c-.35,1.32-1.6,2.13-2.8,1.81-1.19-.32-1.88-1.64-1.53-2.96.35-1.32,1.6-2.13,2.8-1.81,1.19.32,1.88,1.64,1.53,2.96Z"/>
  <path d="M167.56,71.4c-3.02-3.26-.67-5.85.94-5.91,1.61-.06,4.11.37,2.71,5.51-1.07-.73-1.84-1.55-3.66.4"/>
  <path class="st3" d="M82.56,128.11s-.27,4.54,5.08,5.08c0,0,.03,2.26,1.98,4.21,1.95,1.95,4.21,1.98,4.21,1.98.55,5.36,5.08,5.08,5.08,5.08"/>
  <path class="st20" d="M60.74,234.55c-4.75-26.81,3.05-35.47,21.21-38.02,20.6-.73,22.55,27.91,24.13,38.02h-45.34Z"/>
  <path class="st1" d="M60.74,234.55c-4.75-26.81,3.05-35.47,21.21-38.02,20.6-.73,22.55,27.91,24.13,38.02h-45.34Z"/>
  <path class="st15" d="M96.23,202.82c-7.56,2.83-9.97,14.3-19.8,14.3-9.12-.1-11.72-7.18-12.4-12.46,3.76-4.65,9.8-7,17.91-8.14,6.35-.23,10.93,2.34,14.28,6.29"/>
  <path class="st1" d="M96.23,202.82c-7.56,2.83-9.97,14.3-19.8,14.3-9.12-.1-11.72-7.18-12.4-12.46,3.76-4.65,9.8-7,17.91-8.14,6.35-.23,10.93,2.34,14.28,6.29Z"/>
  <path class="st2" d="M91.7,215.64s-2.89,3.62-4.39,18.42"/>
  <path class="st2" d="M89.87,230.02s-.46,2.13,0,2.68"/>
  <path d="M77.77,189.14c-2.17,0-3.94,1.36-3.94,3.03s1.76,3.03,3.94,3.03c.19,0,.38-.02.56-.04.78-1.43,1.23-3.57,1.48-5.56-.6-.28-1.29-.45-2.03-.45"/>
  <path class="st15" d="M81.71,192.16c0-1.1-.77-2.05-1.9-2.58-.25,1.99-.69,4.14-1.48,5.56,1.91-.21,3.38-1.46,3.38-2.98"/>
  <path class="st1" d="M79.8,189.58c-.6-.28-1.29-.45-2.04-.45-2.17,0-3.94,1.36-3.94,3.03s1.76,3.03,3.94,3.03c.19,0,.38-.02.56-.04,1.91-.21,3.38-1.46,3.38-2.98,0-1.1-.77-2.05-1.9-2.58Z"/>
  <path d="M68.57,197.78s-6.49-.67-5.24,3.69c.11.39.55.84.81,1.15.29.34.6.66.95.94.61.49,1.33.86,2.11.95,1.85.23,3.28-1.14,4.24-2.56.68-1,.76-2.46.73-3.65,0-.21.03-.68-.15-.86,0,0,3.05-1.52,2.44-2.59-2.01-3.26-7.31.34-5.88,2.92"/>
  <path class="st6" d="M101.61,234.51s-9.91-46.39,17.71-46.39c17.79.49,23.24,17.39,24.46,46.39h-42.17Z"/>
  <path class="st19" d="M118.9,188.13c-1.92,2.32-5.57,4.98-6.89,4.57-.98-.3-.97-1.71-.77-2.88,2.16-1.05,4.68-1.66,7.66-1.69"/>
  <path class="st1" d="M118.9,188.13c-1.92,2.32-5.57,4.98-6.89,4.57-.98-.3-.97-1.71-.77-2.88,2.16-1.05,4.68-1.66,7.66-1.69Z"/>
  <path class="st1" d="M101.61,234.51s-9.91-46.39,17.71-46.39c17.79.49,23.24,17.39,24.46,46.39h-42.17Z"/>
  <path class="st2" d="M128.55,210.02s5.4,21.04,5.57,24.05"/>
  <path class="st19" d="M114.69,183.18c0,1.43-1.02,2.58-2.28,2.58s-2.28-1.15-2.28-2.58,1.02-2.58,2.28-2.58,2.28,1.15,2.28,2.58"/>
  <path class="st1" d="M114.69,183.18c0,1.43-1.02,2.58-2.28,2.58s-2.28-1.15-2.28-2.58,1.02-2.58,2.28-2.58,2.28,1.15,2.28,2.58Z"/>
  <path d="M109.45,181.01s.89-5.28,4.71-4.43c3.78,1.06-.98,6.5-.98,6.5,0,0-2.17,2.46-3.17,1.46-1-1-.57-3.53-.57-3.53"/>
  <path class="st12" d="M192.86,234.51c7.19-34.08,7.92-49.68,33.52-49.68,30.22,0,14.14,49.68,14.14,49.68h-47.65Z"/>
  <path class="st2" d="M192.86,234.51c7.19-34.08,7.92-49.68,33.52-49.68,30.22,0,14.14,49.68,14.14,49.68h-47.65Z"/>
  <path class="st2" d="M214.14,211.11s-6.34,21-6.26,22.99"/>
  <path d="M228.12,176.62c-1.9-2.05.89-3.98-.57-6.38-.63-1.03.22-2.29.98-2.97,1.18-1.06,2.83-1.52,4.38-1.2.97.2,1.85.69,2.61,1.33.49.41.92.88,1.31,1.39.58.74.79,1.66,1.03,2.54.28,1,.55,2.01.87,3,.63,1.97,1.47,3.85,2.68,5.54,2.19,3.37-3.09,3.62,1.46,9.63,4.55,6.01,1.18,14.5-4.39,14.1-5.56-.41-4.06-7.64-4.06-7.64-2.28-2.92-5.49-2.4-5.69-7.88.04-3.74,5.53-4.83-.61-11.46"/>
  <path class="st15" d="M232.22,177.1c-.83,2.28-2.79,3.66-4.39,3.08-1.6-.58-2.22-2.89-1.4-5.17.82-2.28,2.79-3.66,4.39-3.08,1.6.58,2.23,2.89,1.4,5.17"/>
  <path class="st1" d="M232.22,177.1c-.83,2.28-2.79,3.66-4.39,3.08-1.6-.58-2.22-2.89-1.4-5.17.82-2.28,2.79-3.66,4.39-3.08,1.6.58,2.23,2.89,1.4,5.17Z"/>
  <path class="st9" d="M164.54,200c-9.51,4.75-14.35,14.99-15.56,34.51h18.45c4.26-12.36,3.57-24.9-2.89-34.51"/>
  <path class="st9" d="M197.01,199.51c3.67,10.11,3.12,24.21.59,35.04h8.05c3.36-18.21,1.82-29.85-8.64-35.04"/>
  <path class="st17" d="M197.01,199.51c-3.23-1.6-7.3-2.58-12.34-2.96.47.88.79,1.84,1.02,2.82.48,2,.67,4.07.45,6.11-.09.87-.44,1.74-1.47,1.61-.66-.08-1.28-.43-1.7-.94-.55-.68-.52-1.38-.57-2.19-.05-.84-.22-1.67-.45-2.47-.45-1.57-1.21-3.06-2.22-4.35-.14-.18-.31-.33-.46-.5-5.81.33-10.7,1.34-14.74,3.36,6.46,9.61,7.15,22.15,2.89,34.53l30.17.02c2.53-10.83,3.08-24.93-.59-35.04"/>
  <path class="st1" d="M197.01,199.51c-3.33-1.65-7.55-2.65-12.81-3-8.03-.05-14.53.92-19.66,3.48,6.46,9.61,7.15,22.15,2.89,34.53l30.17.02c2.53-10.83,3.08-24.93-.59-35.04Z"/>
  <path class="st1" d="M148.98,234.51c1.87-30.06,12.31-38.13,35.22-38,21.04.46,25.88,14.03,21.45,38.04l-56.67-.04Z"/>
  <path class="st9" d="M184.72,188.84c.46,1.84-.44,3.65-2.02,4.05-1.58.4-3.23-.77-3.7-2.61-.46-1.84.44-3.65,2.02-4.05,1.58-.4,3.23.77,3.7,2.61"/>
  <path class="st1" d="M184.72,188.84c.46,1.84-.44,3.65-2.02,4.05-1.58.4-3.23-.77-3.7-2.61-.46-1.84.44-3.65,2.02-4.05,1.58-.4,3.23.77,3.7,2.61Z"/>
  <path d="M181.8,186.38s.3-.91-.21-1.4c-.52-.49-.55-2.9,1.86-2.93,2.41-.03,4.63,2.77,3.44,5.45-1.19,2.68-2.38,3.99-2.38,3.99-.09-3.23-.43-4.36-2.71-5.12"/>
  <path class="st9" d="M181.96,201.49c.23.8.39,1.64.45,2.47.05.81.03,1.51.57,2.19.42.52,1.04.86,1.7.94,1.03.13,1.38-.74,1.47-1.61.22-2.04.02-4.12-.46-6.11-.23-.97-.55-1.94-1.02-2.82-.16-.01-.31-.03-.47-.04-1.72-.01-3.35.04-4.92.12.15.17.32.32.46.5,1.01,1.29,1.77,2.77,2.22,4.34"/>
  <path class="st1" d="M181.96,201.49c.23.8.39,1.64.45,2.47.05.81.03,1.51.57,2.19.42.52,1.04.86,1.7.94,1.03.13,1.38-.74,1.47-1.61.22-2.04.02-4.12-.46-6.11-.23-.97-.55-1.94-1.02-2.82-.16-.01-.31-.03-.47-.04-1.72-.01-3.35.04-4.92.12.15.17.32.32.46.5,1.01,1.29,1.77,2.77,2.22,4.34Z"/>
</svg>